<svg xmlns="http://www.w3.org/2000/svg" width="79.37" height="79.37" viewBox="0 0 79.37 79.37"><path fill="#DD4B38" d="M70.91 1.935h-62c-3.866 0-7.5 1.5-7.5 6.5v64.643c0 3.866 3.634 4.857 7.5 4.857h62c3.866 0 6.5-.99 6.5-4.857V8.435c0-5-2.634-6.5-6.5-6.5z"/><path fill="#FFF" d="M57.91 7.435h6v14h14.05v5.877H63.91v14.123h-6V27.312h-14v-5.877h14"/><linearGradient id="a" gradientUnits="userSpaceOnUse" x1="23.516" y1="77.435" x2="23.516" y2="7.436"><stop offset="0" stop-color="#F2F2F2"/><stop offset=".241" stop-color="#F6F6F6"/><stop offset="1" stop-color="#FFF"/></linearGradient><path fill="url(#a)" d="M33.71 55.495L29.73 52.4c-1.21-1-2.866-2.33-2.866-4.764 0-2.44 1.655-3.996 3.09-5.434 4.637-3.65 8.957-7.535 8.957-15.732 0-7.483-4.04-11.686-6.75-14.035h6.765l6.198-5H21.788c-5.79.107-12.693.977-18.986 6.186-.294.257-.613.55-.89.817v27c3.026 2.516 7.14 4.425 12.148 4.425 1.106 0 2.316-.113 3.533-.222-.55 1.33-1.103 2.44-1.103 4.324 0 3.433 1.764 5.534 3.312 7.532-4.22.286-12.89-.432-17.89 3.568v6.375c2.278-3.098 5.918-4.48 7.513-5.065 4.636-1.552 10.6-1.774 11.597-1.774 1.098 0 1.65 0 2.53.114 8.395 5.985 14.41 9.064 14.472 14.726.012 1.096-.3 1.437-.463 2h6.464c.666-1.557.89-3.397.89-5.445-.002-7.648-6.348-12.396-11.202-16.497zm-14.087-14.06c-9.495 0-13.393-10.977-13.393-18.396 0-2.89.29-5.876 2.166-8.204 1.77-2.216 4.857-3.656 7.73-3.656 9.158 0 13.783 12.41 13.783 20.388 0 1.597-.815 4.72-2.887 7.094-1.815 2.07-4.644 2.77-7.402 2.77z"/></svg>
