<svg xmlns="http://www.w3.org/2000/svg" width="488.267" height="495.191"><path d="M474.215 300.166c3.52-16.1 5.392-32.815 5.392-49.97 0-128.614-104.262-232.88-232.88-232.88-13.582 0-26.888 1.176-39.83 3.408C186.085 7.616 161.46.004 135.045.004 60.457.005-.005 60.475-.005 135.055c0 24.93 6.782 48.266 18.562 68.31-3.087 15.13-4.712 30.79-4.712 46.833 0 128.613 104.262 232.88 232.88 232.88 14.565 0 28.815-1.35 42.64-3.908 19.01 10.217 40.75 16.024 63.844 16.024 74.586 0 135.05-60.463 135.05-135.05 0-21.55-5.07-41.903-14.05-59.975" fill="#00aaf1"/><path d="M176.852 97.107c-19.582 7.242-34.79 17.8-45.205 31.383-10.492 13.68-15.812 29.535-15.812 47.127 0 18.457 5.067 34.16 15.067 46.672 9.847 12.324 23.307 22.174 40.007 29.277 16.33 6.945 36.864 13.09 61.03 18.267 17.776 3.718 32.145 7.277 42.73 10.575 10.15 3.165 18.51 7.777 24.847 13.704 6.054 5.668 8.997 12.896 8.997 22.09 0 11.637-5.638 21.14-17.235 29.057-11.876 8.107-27.658 12.22-46.91 12.22-14 0-25.38-2.026-33.823-6.026-8.393-3.968-14.965-9.048-19.53-15.094-4.753-6.288-9.255-14.266-13.38-23.718-3.695-8.68-8.295-15.402-13.656-19.945-5.61-4.74-12.51-7.142-20.51-7.142-9.75 0-17.926 3.04-24.306 9.04-6.445 6.054-9.715 13.45-9.715 21.99 0 13.65 5.016 27.807 14.91 42.076 9.794 14.13 22.694 25.576 38.34 34.026 21.89 11.613 49.934 17.494 83.38 17.494 27.866 0 52.35-4.305 72.775-12.794 20.62-8.575 36.537-20.654 47.312-35.9 10.813-15.304 16.294-32.787 16.294-51.97 0-16.034-3.184-29.83-9.468-41.01-6.268-11.136-15.1-20.465-26.256-27.73-10.927-7.11-24.33-13.23-39.837-18.195-15.318-4.895-32.64-9.428-51.485-13.474-14.89-3.44-25.75-6.1-32.225-7.9-6.315-1.742-12.62-4.187-18.743-7.262-5.9-2.954-10.568-6.5-13.878-10.545-3.126-3.816-4.645-8.25-4.645-13.558 0-8.65 4.722-15.955 14.437-22.325 10.078-6.608 23.654-9.958 40.35-9.958 17.975 0 31.053 3.02 38.878 8.974 8.062 6.125 15.092 14.825 20.9 25.858 5.017 8.643 9.54 14.65 13.897 18.5 4.685 4.15 11.434 6.255 20.06 6.255 9.494 0 17.54-3.362 23.918-9.995 6.337-6.59 9.554-14.15 9.554-22.47 0-8.646-2.454-17.583-7.286-26.563-4.783-8.895-12.403-17.458-22.643-25.458-10.168-7.943-23.108-14.4-38.46-19.178-15.26-4.745-33.546-7.15-54.344-7.15-26.012 0-49.002 3.625-68.33 10.772" fill="#fff"/></svg>
